<?xml version="1.0" standalone="no"?>
<svg xmlns:xlink="http://www.w3.org/1999/xlink" id="wave" style="transform:rotate(180deg); transition: 0.3s" viewBox="0 0 1440 130" version="1.1" xmlns="http://www.w3.org/2000/svg"><defs><linearGradient id="sw-gradient-0" x1="0" x2="0" y1="1" y2="0"><stop stop-color="rgba(243, 106, 62, 1)" offset="0%"/><stop stop-color="rgba(255, 179, 11, 1)" offset="100%"/></linearGradient></defs><path style="transform:translate(0, 0px); opacity:1" fill="url(#sw-gradient-0)" d="M0,78L40,78C80,78,160,78,240,82.3C320,87,400,95,480,84.5C560,74,640,43,720,45.5C800,48,880,82,960,84.5C1040,87,1120,56,1200,47.7C1280,39,1360,52,1440,65C1520,78,1600,91,1680,91C1760,91,1840,78,1920,65C2000,52,2080,39,2160,30.3C2240,22,2320,17,2400,21.7C2480,26,2560,39,2640,39C2720,39,2800,26,2880,34.7C2960,43,3040,74,3120,84.5C3200,95,3280,87,3360,82.3C3440,78,3520,78,3600,80.2C3680,82,3760,87,3840,82.3C3920,78,4000,65,4080,52C4160,39,4240,26,4320,30.3C4400,35,4480,56,4560,62.8C4640,69,4720,61,4800,49.8C4880,39,4960,26,5040,17.3C5120,9,5200,4,5280,19.5C5360,35,5440,69,5520,69.3C5600,69,5680,35,5720,17.3L5760,0L5760,130L5720,130C5680,130,5600,130,5520,130C5440,130,5360,130,5280,130C5200,130,5120,130,5040,130C4960,130,4880,130,4800,130C4720,130,4640,130,4560,130C4480,130,4400,130,4320,130C4240,130,4160,130,4080,130C4000,130,3920,130,3840,130C3760,130,3680,130,3600,130C3520,130,3440,130,3360,130C3280,130,3200,130,3120,130C3040,130,2960,130,2880,130C2800,130,2720,130,2640,130C2560,130,2480,130,2400,130C2320,130,2240,130,2160,130C2080,130,2000,130,1920,130C1840,130,1760,130,1680,130C1600,130,1520,130,1440,130C1360,130,1280,130,1200,130C1120,130,1040,130,960,130C880,130,800,130,720,130C640,130,560,130,480,130C400,130,320,130,240,130C160,130,80,130,40,130L0,130Z"/></svg>