<?xml version="1.0" standalone="no"?>
<svg xmlns:xlink="http://www.w3.org/1999/xlink" id="wave" style="transform:rotate(180deg); transition: 0.3s" viewBox="0 0 1440 100" version="1.1" xmlns="http://www.w3.org/2000/svg"><defs><linearGradient id="sw-gradient-0" x1="0" x2="0" y1="1" y2="0"><stop stop-color="rgba(137, 210, 220, 1)" offset="0%"/><stop stop-color="rgba(137, 210, 220, 1)" offset="100%"/></linearGradient></defs><path style="transform:translate(0, 0px); opacity:1" fill="url(#sw-gradient-0)" d="M0,0L26.7,0C53.3,0,107,0,160,8.3C213.3,17,267,33,320,36.7C373.3,40,427,30,480,33.3C533.3,37,587,53,640,53.3C693.3,53,747,37,800,28.3C853.3,20,907,20,960,23.3C1013.3,27,1067,33,1120,41.7C1173.3,50,1227,60,1280,53.3C1333.3,47,1387,23,1440,23.3C1493.3,23,1547,47,1600,48.3C1653.3,50,1707,30,1760,20C1813.3,10,1867,10,1920,23.3C1973.3,37,2027,63,2080,68.3C2133.3,73,2187,57,2240,41.7C2293.3,27,2347,13,2400,8.3C2453.3,3,2507,7,2560,8.3C2613.3,10,2667,10,2720,13.3C2773.3,17,2827,23,2880,28.3C2933.3,33,2987,37,3040,35C3093.3,33,3147,27,3200,30C3253.3,33,3307,47,3360,58.3C3413.3,70,3467,80,3520,78.3C3573.3,77,3627,63,3680,48.3C3733.3,33,3787,17,3813,8.3L3840,0L3840,100L3813.3,100C3786.7,100,3733,100,3680,100C3626.7,100,3573,100,3520,100C3466.7,100,3413,100,3360,100C3306.7,100,3253,100,3200,100C3146.7,100,3093,100,3040,100C2986.7,100,2933,100,2880,100C2826.7,100,2773,100,2720,100C2666.7,100,2613,100,2560,100C2506.7,100,2453,100,2400,100C2346.7,100,2293,100,2240,100C2186.7,100,2133,100,2080,100C2026.7,100,1973,100,1920,100C1866.7,100,1813,100,1760,100C1706.7,100,1653,100,1600,100C1546.7,100,1493,100,1440,100C1386.7,100,1333,100,1280,100C1226.7,100,1173,100,1120,100C1066.7,100,1013,100,960,100C906.7,100,853,100,800,100C746.7,100,693,100,640,100C586.7,100,533,100,480,100C426.7,100,373,100,320,100C266.7,100,213,100,160,100C106.7,100,53,100,27,100L0,100Z"/></svg>